/* XPM */
static const char *iconoagregar_xpm[] = {
"32 32 119 2",
"  	c None",
". 	c #FFFFFF",
"+ 	c #939393",
"@ 	c #101010",
"# 	c #000000",
"$ 	c #010101",
"% 	c #111111",
"& 	c #999999",
"* 	c #575757",
"= 	c #1E1E1E",
"- 	c #414141",
"; 	c #C5C5C5",
"> 	c #B9B9B9",
", 	c #C8C8C8",
"' 	c #303030",
") 	c #5A5A5A",
"! 	c #B1B1B1",
"~ 	c #444444",
"{ 	c #747474",
"] 	c #5D5D5D",
"^ 	c #131313",
"/ 	c #A6A6A6",
"( 	c #5B5B5B",
"_ 	c #404040",
": 	c #606060",
"< 	c #FCFCFC",
"[ 	c #FDFDFD",
"} 	c #3E3E3E",
"| 	c #515151",
"1 	c #6A6A6A",
"2 	c #B3B3B3",
"3 	c #9D9D9D",
"4 	c #6D6D6D",
"5 	c #4F4F4F",
"6 	c #4E4E4E",
"7 	c #646464",
"8 	c #D2D2D2",
"9 	c #818181",
"0 	c #797979",
"a 	c #E0E0E0",
"b 	c #D4D4D4",
"c 	c #D5D5D5",
"d 	c #DCDCDC",
"e 	c #474747",
"f 	c #484848",
"g 	c #494949",
"h 	c #070707",
"i 	c #767676",
"j 	c #222222",
"k 	c #777777",
"l 	c #BFBFBF",
"m 	c #0A0A0A",
"n 	c #8E8E8E",
"o 	c #787878",
"p 	c #CBCBCB",
"q 	c #C1C1C1",
"r 	c #C2C2C2",
"s 	c #BDBDBD",
"t 	c #F7F7F7",
"u 	c #202020",
"v 	c #7E7E7E",
"w 	c #0D0D0D",
"x 	c #CACACA",
"y 	c #030303",
"z 	c #F8F8F8",
"A 	c #DFDFDF",
"B 	c #B4B4B4",
"C 	c #D3D3D3",
"D 	c #898989",
"E 	c #C3C3C3",
"F 	c #D0D0D0",
"G 	c #C4C4C4",
"H 	c #727272",
"I 	c #2B2B2B",
"J 	c #737373",
"K 	c #252525",
"L 	c #595959",
"M 	c #4C4C4C",
"N 	c #090909",
"O 	c #1A1A1A",
"P 	c #3B3B3B",
"Q 	c #8A8A8A",
"R 	c #212121",
"S 	c #ABABAB",
"T 	c #A5A5A5",
"U 	c #A7A7A7",
"V 	c #A8A8A8",
"W 	c #EDEDED",
"X 	c #F4F4F4",
"Y 	c #B8B8B8",
"Z 	c #AAAAAA",
"` 	c #0F0F0F",
" .	c #CDCDCD",
"..	c #0E0E0E",
"+.	c #262626",
"@.	c #949494",
"#.	c #848484",
"$.	c #121212",
"%.	c #ACACAC",
"&.	c #050505",
"*.	c #626262",
"=.	c #292929",
"-.	c #707070",
";.	c #171717",
">.	c #616161",
",.	c #7B7B7B",
"'.	c #F2F2F2",
").	c #9B9B9B",
"!.	c #666666",
"~.	c #E5E5E5",
"{.	c #B0B0B0",
"].	c #1F1F1F",
"^.	c #434343",
"/.	c #A2A2A2",
"(.	c #BEBEBE",
"_.	c #C6C6C6",
":.	c #424242",
"<.	c #161616",
"[.	c #545454",
". + @ # $ $ $ $ $ $ $ $ $ $ $ # % + . . . . . . . . . . . . . . ",
"& # # # # # # # # # # # # # # # # # * . . . . . . . . . . . . . ",
"= # - ; > > > > > > > > > , ' # # # # ) . . . . . . . . . . . . ",
"@ # ! . . . . . . . . . . . ~ # { * # # ] . . . . . . . . . . . ",
"^ # / . . . . . . . . . . . - # ( . _ # # : . . . . . . . . . . ",
"^ # / . . . < [ [ [ < . . . } # ( . . | # # 1 . . . . . . . . . ",
"^ # / . 2 # # # # # # # 3 . 4 # # 5 6 7 # # # 8 . . . . . . . . ",
"^ # / . & # # # # # # # 9 . . # # # # # # # # 0 . . . . . . . . ",
"^ # / . . a b c c c b d . . . . { e f g | h # i . . . . . . . . ",
"^ # / . . . . . . . . . . . . . . . . . . j # k . . . . . . . . ",
"^ # / . . . . . . . . . . . . . . . . . . = # k . . . . . . . . ",
"^ # / . . . . . . . . . . . . . . . . . . = # k . . . . . . . . ",
"^ # / . . . . . . . . . . . . . . . . . . = # k . . . . . . . . ",
"^ # / . . . . . . . . . . . . . . . . . . = # k . . . . . . . . ",
"^ # / . l # # # # # # # # # # # # # m . . = # k . . . . . . . . ",
"^ # / . n # # # # # # # # # # # # # # . . = # o . . . . . . . . ",
"^ # / . . p q r r r r r r r r r r s t . . u # v . . . . . . . . ",
"^ # / . . . . . . . . . . . . . . . . . . w # # # # = & . . . . ",
"^ # / . . . . . . . . . . . . . . . . x # # # # # # # # y z . . ",
"^ # / . . . . . . . . . . . . . . . , # # # 7 r A B ~ # # # [ . ",
"^ # / . . . . . . . . . . . . . . . # # # . . . 8 . . C # # % . ",
"^ # / . . . . . . . . . . . . . . 4 # # . . . } # D . . E # # r ",
"^ # / . F # # # # # # # # # # G . # # H . . . I # J . . . K # L ",
"^ # / . 9 # # # # # # # # # # H . # # C . M _ N # O P J . Q # R ",
"^ # / . . S T U U U U U U / V . W # # X Y # # # # # # # . Z # ` ",
"^ # / . . . . . . . . . . . . . . # #  .. 4 : ..# +.) @.. #.# K ",
"$.# %.. . . . . . . . . . . . . . &.# *.. . . =.# -.. . . ;.# >.",
"$.# ,.. . . . . . . . . . . . . . n # # '.. . | # ).. . Z # # F ",
"!.# # # # # # # # # # # # # # # # # # # # ~.. . z . . {.# # K . ",
". ].# # # # # # # # # # # # # # # # # # # # ^./.(.@.j # # # . . ",
". . a q G G G G G G G G G G G G G G _.l # # # # # # # # = . . . ",
". . . . . . . . . . . . . . . . . . . . . / :...# <.[.; . . . . "};
