/* XPM */
static const char *iconofacturas_xpm[] = {
"32 32 142 2",
"  	c None",
". 	c #FFFFFF",
"+ 	c #9E9E9E",
"@ 	c #5D5D5D",
"# 	c #5B5B5B",
"$ 	c #5C5C5C",
"% 	c #4A4A4A",
"& 	c #464646",
"* 	c #5A5A59",
"= 	c #524F4E",
"- 	c #4E4A49",
"; 	c #8A8886",
"> 	c #E5E5E5",
", 	c #292929",
"' 	c #C2C2C2",
") 	c #343537",
"! 	c #92AAB8",
"~ 	c #D5F5FF",
"{ 	c #ACC7D7",
"] 	c #232A2D",
"^ 	c #D9D6D5",
"/ 	c #2A2A2A",
"( 	c #222426",
"_ 	c #DCFDFF",
": 	c #D2F1FF",
"< 	c #CCE9FA",
"[ 	c #CFEDFF",
"} 	c #E5FFFF",
"| 	c #242C31",
"1 	c #6F6F6F",
"2 	c #EEEEEE",
"3 	c #9E9B99",
"4 	c #97B0C0",
"5 	c #D1EFFF",
"6 	c #CBE8F9",
"7 	c #CDEBFD",
"8 	c #C0DEF0",
"9 	c #6E6B69",
"0 	c #525252",
"a 	c #575554",
"b 	c #D9F9FF",
"c 	c #CAE8F9",
"d 	c #515253",
"e 	c #575757",
"f 	c #CCCCCC",
"g 	c #D2D2D2",
"h 	c #D9D9D9",
"i 	c #E2E2E2",
"j 	c #EBEBEB",
"k 	c #E9E9E9",
"l 	c #F9F9F9",
"m 	c #5B5858",
"n 	c #D5F6FF",
"o 	c #D6F6FF",
"p 	c #535656",
"q 	c #8B8B8B",
"r 	c #939393",
"s 	c #8C8C8C",
"t 	c #838383",
"u 	c #7B7B7B",
"v 	c #777777",
"w 	c #727272",
"x 	c #D6D6D6",
"y 	c #737373",
"z 	c #6E6E6E",
"A 	c #5C5A59",
"B 	c #E0FFFF",
"C 	c #E1FFFF",
"D 	c #505353",
"E 	c #5C5C5B",
"F 	c #545658",
"G 	c #545557",
"H 	c #505254",
"I 	c #FEFEFE",
"J 	c #484848",
"K 	c #565656",
"L 	c #4C4C4C",
"M 	c #C8C8C8",
"N 	c #555555",
"O 	c #4D4D4D",
"P 	c #EFEFEF",
"Q 	c #585858",
"R 	c #FAFAFA",
"S 	c #4E4E4E",
"T 	c #5E5E5E",
"U 	c #CBCBCB",
"V 	c #474747",
"W 	c #F3F3F3",
"X 	c #F6F6F6",
"Y 	c #686868",
"Z 	c #797979",
"` 	c #7D7D7D",
" .	c #808080",
"..	c #8D8D8D",
"+.	c #F7F7F7",
"@.	c #F1F1F1",
"#.	c #F0F0F0",
"$.	c #ECECEC",
"%.	c #E6E6E6",
"&.	c #E0E0E0",
"*.	c #F8F8F8",
"=.	c #D3D3D3",
"-.	c #C9C9C9",
";.	c #FBFBFB",
">.	c #5F5F5F",
",.	c #696969",
"'.	c #676767",
").	c #646464",
"!.	c #616161",
"~.	c #4F4F4F",
"{.	c #F2F2F2",
"].	c #313131",
"^.	c #6B6B6B",
"/.	c #828282",
"(.	c #FDFDFD",
"_.	c #6C6C6C",
":.	c #202020",
"<.	c #A2A2A2",
"[.	c #1F1F1F",
"}.	c #3B3B3B",
"|.	c #D7D7D7",
"1.	c #6D6D6D",
"2.	c #A7A7A7",
"3.	c #E3E3E3",
"4.	c #929292",
"5.	c #979797",
"6.	c #515151",
"7.	c #373737",
"8.	c #848484",
"9.	c #494949",
"0.	c #717171",
"a.	c #393939",
"b.	c #232323",
"c.	c #DFDFDF",
"d.	c #000000",
"e.	c #E1E1E1",
"f.	c #1D1D1D",
"g.	c #272727",
"h.	c #DCDCDC",
"i.	c #969696",
"j.	c #F4F4F4",
"k.	c #9B9B9B",
". . . . . . . . . . . . . . . . . . . . . . . . . . . . . . . . ",
". . . . . . . . . . . . . . . . . . . . . . . . . . . . . . . . ",
". . . . . . . . . . . . . . . . . . . . . . . . . . . . . . . . ",
". . . . . . + @ # $ @ % & & & & & & & & & % * = - ; . . . . . . ",
". . . . > , ' . . . . . . . . . . . . . . . ) ! ~ { ] ^ . . . . ",
". . . . / . . . . . . . . . . . . . . . . ( _ : < [ } | . . . . ",
". . . 1 2 . . . . . . . . . . . . . . . 3 4 5 6 6 6 7 8 9 . . . ",
". . . 0 . . . . . . . . . . . . . . . . a b 6 6 6 6 c b d . . . ",
". . . e . . f g h i j 2 k l . . j k . . m n 6 6 6 6 6 o p . . . ",
". . . e . . q r s t u v w x . . y z j . A B o o o o o C D . . . ",
". . . e . . . . . . . . . . . . . . . . E F G G G G G H u . . . ",
". . . e . I J K e K K e L M . . N O P . Q . . . . . . . . . . . ",
". . . e . . . . . . . . . . . . . . . . e . . . . . . . . . . . ",
". . . e . . . . . . . . . . . . . . . . e . . . . . . . . . . . ",
". . . e . R S e Q $ T T O U . . 0 V W . e . . . . . . . . . . . ",
". . . e . . . . . . . . . . . . . . . . e . . . . . . . . . . . ",
". . . e . X Y v Z u `  .u x . . ....+.. e . . . . . . . . . . . ",
". . . e . . @.#.2 $.k %.&.*.. . =.-.. . e . . . . . . . . . . . ",
". . . e . . ;.. . . . . . . . . . . . . e . . . . . . . . . . . ",
". . . e . W >.,.'.).!.>.~.{.. I ].^.. . e . . . . . . . . . . . ",
". . . e . . . . . . . . . . . /.].(.. . e . . . . . . . . . . . ",
". . . e . . . . . . . . . . . . _.:.. . e . . . . . . . . . . . ",
". . . e . . . . . . . . . . . <.[.}.. . e . . . . . . . . . . . ",
". . . e . . . . . . . . . . . . |.. . . e . . . . . . . . . . . ",
". . . e . . . . . . . . . . . . . . . . e . . . . . . . . . . . ",
". . . e . 1.. . 2.3.. *.4.. . _.. . <.l # . . . . . . . . . . . ",
". . . '.5.Z Z I 6.7.. 7.e *.8.Z  .*.N 9.0.. . . . . . . . . . . ",
". . . a.^.. z b.. c.d.e.. f.w . Y g.. h.d.. . . . . . . . . . . ",
". . . i.. . . W . . 2 . . P . . . j.. . k.. . . . . . . . . . . ",
". . . . . . . . . . . . . . . . . . . . . . . . . . . . . . . . ",
". . . . . . . . . . . . . . . . . . . . . . . . . . . . . . . . ",
". . . . . . . . . . . . . . . . . . . . . . . . . . . . . . . . "};
