/* XPM */
static const char *iconoranking_xpm[] = {
"32 32 5 1",
" 	c None",
".	c #FFFFFF",
"+	c #121212",
"@	c #000000",
"#	c #131313",
"................................",
"................................",
"................................",
"................................",
"......................+@@@@@@#..",
"......................@@@@@@@@..",
"......................@@....@@..",
"......................@@....@@..",
"......................@@....@@..",
"......................@@....@@..",
"......................@@....@@..",
"......................@@....@@..",
"............+@@@@@@#..@@....@@..",
"............@@@@@@@@..@@....@@..",
"............@@....@@..@@....@@..",
"............@@....@@..@@....@@..",
"............@@....@@..@@....@@..",
"............@@....@@..@@....@@..",
"..+@@@@@@#..@@....@@..@@....@@..",
"..@@@@@@@@..@@....@@..@@....@@..",
"..@@....@@..@@....@@..@@....@@..",
"..@@....@@..@@....@@..@@....@@..",
"..@@....@@..@@....@@..@@....@@..",
"..@@....@@..@@....@@..@@....@@..",
"..@@....@@..@@....@@..@@....@@..",
"..@@....@@..@@....@@..@@....@@..",
"..@@@@@@@@..@@@@@@@@..@@@@@@@@..",
"..#@@@@@@#..#@@@@@@#..#@@@@@@#..",
"................................",
"................................",
"................................",
"................................"};
