/* XPM */
static const char *iconoventas_xpm[] = {
"32 32 131 2",
"  	c None",
". 	c #F2F2F2",
"+ 	c #F9F9F9",
"@ 	c #FFFFFF",
"# 	c #F7F7F7",
"$ 	c #959595",
"% 	c #4E4E4E",
"& 	c #1A1A1A",
"* 	c #080808",
"= 	c #0E0E0E",
"- 	c #2D2D2D",
"; 	c #8F8F8F",
"> 	c #F4F4F4",
", 	c #F5F5F5",
"' 	c #D2D2D2",
") 	c #373737",
"! 	c #000000",
"~ 	c #141414",
"{ 	c #FBFBFB",
"] 	c #454545",
"^ 	c #575757",
"/ 	c #DBDBDB",
"( 	c #363636",
"_ 	c #2C2C2C",
": 	c #FCFCFC",
"< 	c #E0E0E0",
"[ 	c #DFDFDF",
"} 	c #BDBDBD",
"| 	c #A6A6A6",
"1 	c #808080",
"2 	c #CDCDCD",
"3 	c #A9A9A9",
"4 	c #484848",
"5 	c #777777",
"6 	c #090909",
"7 	c #C6C6C6",
"8 	c #787878",
"9 	c #828282",
"0 	c #333333",
"a 	c #C5C5C5",
"b 	c #272727",
"c 	c #F6F6F6",
"d 	c #686868",
"e 	c #626262",
"f 	c #323232",
"g 	c #1F1F1F",
"h 	c #F3F3F3",
"i 	c #A7A7A7",
"j 	c #7E7E7E",
"k 	c #474747",
"l 	c #FDFDFD",
"m 	c #D9D9D9",
"n 	c #282828",
"o 	c #818181",
"p 	c #A1A1A1",
"q 	c #252525",
"r 	c #FAFAFA",
"s 	c #0C0C0C",
"t 	c #3F3F3F",
"u 	c #383838",
"v 	c #5D5D5D",
"w 	c #3C3C3C",
"x 	c #3A3A3A",
"y 	c #E7E7E7",
"z 	c #CECECE",
"A 	c #C8C8C8",
"B 	c #7A7A7A",
"C 	c #444444",
"D 	c #C4C4C4",
"E 	c #848484",
"F 	c #C3C3C3",
"G 	c #E8E8E8",
"H 	c #232323",
"I 	c #464646",
"J 	c #2F2F2F",
"K 	c #E6E6E6",
"L 	c #D6D6D6",
"M 	c #737373",
"N 	c #BFBFBF",
"O 	c #BEBEBE",
"P 	c #494949",
"Q 	c #646464",
"R 	c #E9E9E9",
"S 	c #101010",
"T 	c #050505",
"U 	c #181818",
"V 	c #BCBCBC",
"W 	c #1E1E1E",
"X 	c #606060",
"Y 	c #EFEFEF",
"Z 	c #DCDCDC",
"` 	c #B3B3B3",
" .	c #121212",
"..	c #6E6E6E",
"+.	c #AAAAAA",
"@.	c #5B5B5B",
"#.	c #696969",
"$.	c #EBEBEB",
"%.	c #B4B4B4",
"&.	c #242424",
"*.	c #8C8C8C",
"=.	c #636363",
"-.	c #5C5C5C",
";.	c #ADADAD",
">.	c #2E2E2E",
",.	c #3E3E3E",
"'.	c #E2E2E2",
").	c #4C4C4C",
"!.	c #262626",
"~.	c #A2A2A2",
"{.	c #E5E5E5",
"].	c #0A0A0A",
"^.	c #AFAFAF",
"/.	c #3B3B3B",
"(.	c #212121",
"_.	c #929292",
":.	c #F8F8F8",
"<.	c #F1F1F1",
"[.	c #0B0B0B",
"}.	c #909090",
"|.	c #D3D3D3",
"1.	c #565656",
"2.	c #D0D0D0",
"3.	c #3D3D3D",
"4.	c #A0A0A0",
"5.	c #131313",
"6.	c #D8D8D8",
"7.	c #6D6D6D",
"8.	c #171717",
"9.	c #4A4A4A",
"0.	c #E1E1E1",
". . . . . . . . . . . . . . + @ # $ % & * = - ; @ > . . . . . . ",
". . . . . . . . . . . . , @ ' ) ! ! ! ! ! ! ! ! ~ @ > . . . . . ",
". . . . . . . . . . . { @ ] ! ! ! ! ! ! ! ! ! ! ! ^ @ . . . . . ",
". . . . . . . . . . @ / ! ! ! ! ! ! ! ! ( _ ! ! ! ! { > . . . . ",
". . . . . . . . . : < ! ! ! ! ! ! ! ! [ @ @ } ! ! ! | : . . . . ",
". . . . . . . . # : ! ! ! ! ! ! ! ! 1 @ 2 3 @ @ 4 ! 5 @ . . . . ",
". . . . . . . > @ 6 ! ! ! ! ! ! ! ! 7 @ ! ! ! 8 @ 9 ] @ . . . . ",
". . . . . . . @ 0 ! ! ! ! ! ! ! ! ! a @ ! ! ! ! b @ / c . . . . ",
". . . . . . @ d ! ! ! ! ! ! ! ! ! ! e @ @ ' f ! ! g @ h . . . . ",
". . . . . @ | ! ! ! ! ! ! ! ! ! ! ! ! i @ @ @ j ! ! k @ . . . . ",
". . . . l m ! ! ! ! ! ! ! ! ! ! ! ! ! ! ! ! n @ o ! ! p @ . . . ",
". . . # : ! ! ! ! ! ! ! ! ! ! ! ! ! ! ! ! ! ! q @ ] ! ! r c . . ",
". . h @ s ! ! ! ! ! ! ! t ! ! u ! ! ! ! ! ! ! ! v @ ! ! w @ . . ",
". . @ x ! ! ! ! ! ! ! y @ @ j @ t ! ! ! ! ! ! ! ! z A ! ! z + . ",
". @ B ! ! ! ! ! ! ! C @ D E @ F ! ! ! ! ! ! ! ! ! G @ 0 ! H @ . ",
"@ } ! ! ! ! ! ! ! ! I @ J ! u @ 6 ! ! ! ! ! ! ! _ @ # K ! ! L + ",
"# ! ! ! ! ! ! ! ! ! ! @ M ! ! N F ! ! ! ! ! ! ! O { . @ ( ! P @ ",
"Q ! ! ! ! ! ! ! ! ! ! ' R ! ! S T ! ! ! ! ! ! U @ . . { V ! ! @ ",
"W ! ! ! ! ! ! @ 4 ! ! X @ = ! ! ! ! ! ! ! ! ! Y Z + . . @ ! ! ` ",
"! ! ! ! ! ! ! E r ! !  .@ ..! ! ! ! ! ! ! ! +.@ ! : , . @ @.! #.",
"* ! ! ! ! ! ! ! $.%.! &.@ *.! ! ! ! ! ! ! =.@ f ! -.@ . : ;.! >.",
",.! ! ! ! ! ! ! '.@ @ @ @ ).! ! ! ! ! ! !.@ l ~.! ! {.+ # {.! ].",
"^.! ! ! ! ! ! /.@ (.h @ _.! ! ! ! ! ! ! @ > . @ ~ ! s @ :.@ ! ! ",
"@ C ! ! ! ! ! ! ! ! ! ! ! ! ! ! ! ! ! <.+ . . + [ ! ! b @ < ! [.",
"h @ [.! ! ! ! ! ! ! ! ! ! ! ! ! ! ! A @ . . . . @ }.! ! ! 6 ! /.",
". # r ! ! ! ! ! ! ! ! ! ! ! ! ! ! _.@ . . . . . . @ 1 ! ! ! ! 2 ",
". . l |.! ! ! ! ! ! ! ! ! ! ! ! 1.@ . . . . . . . . @ 2.4 3.O @ ",
". . . @ 4.! ! ! ! ! ! ! ! ! ! H @ h . . . . . . . . . + @ @ r . ",
". . . . @ Q ! ! ! ! ! ! ! ! ! @ , . . . . . . . . . . . . . . . ",
". . . . . @ 0 ! ! ! ! ! ! ! h + . . . . . . . . . . . . . . . . ",
". . . . . > @ 5.! ! ! ! ! 6.l . . . . . . . . . . . . . . . . . ",
". . . . . . , @ 7.8.~ 9.0.@ . . . . . . . . . . . . . . . . . . "};
