/* XPM */
static const char *iconomodificar_xpm[] = {
"32 32 105 2",
"  	c None",
". 	c #FFFFFF",
"+ 	c #020202",
"@ 	c #D8D8D8",
"# 	c #DADADA",
"$ 	c #000000",
"% 	c #727272",
"& 	c #696969",
"* 	c #D5D5D5",
"= 	c #626262",
"- 	c #575757",
"; 	c #7B7B7B",
"> 	c #7C7C7C",
", 	c #BABABA",
"' 	c #131313",
") 	c #141414",
"! 	c #0D0D0D",
"~ 	c #111111",
"{ 	c #151515",
"] 	c #101010",
"^ 	c #121212",
"/ 	c #030303",
"( 	c #B1B1B1",
"_ 	c #7A7A7A",
": 	c #DDDDDD",
"< 	c #CFCFCF",
"[ 	c #D2D2D2",
"} 	c #565656",
"| 	c #4C4C4C",
"1 	c #DBDBDB",
"2 	c #6B6B6B",
"3 	c #7D7D7D",
"4 	c #D3D3D3",
"5 	c #B7B7B7",
"6 	c #B6B6B6",
"7 	c #ABABAB",
"8 	c #6D6D6D",
"9 	c #7E7E7E",
"0 	c #D1D1D1",
"a 	c #666666",
"b 	c #C6C6C6",
"c 	c #070707",
"d 	c #DCDCDC",
"e 	c #D6D6D6",
"f 	c #F4F4F4",
"g 	c #060606",
"h 	c #7F7F7F",
"i 	c #A3A3A3",
"j 	c #ACACAC",
"k 	c #AFAFAF",
"l 	c #B0B0B0",
"m 	c #AAAAAA",
"n 	c #E2E2E2",
"o 	c #B2B2B2",
"p 	c #DEDEDE",
"q 	c #767676",
"r 	c #5C5C5C",
"s 	c #A4A4A4",
"t 	c #A8A8A8",
"u 	c #A2A2A2",
"v 	c #E4E4E4",
"w 	c #F9F9F9",
"x 	c #818181",
"y 	c #AEAEAE",
"z 	c #F5F5F5",
"A 	c #0B0B0B",
"B 	c #191919",
"C 	c #1A1A1A",
"D 	c #8F8F8F",
"E 	c #F1F1F1",
"F 	c #808080",
"G 	c #828282",
"H 	c #888888",
"I 	c #898989",
"J 	c #8C8C8C",
"K 	c #9E9E9E",
"L 	c #F8F8F8",
"M 	c #2C2C2C",
"N 	c #383838",
"O 	c #393939",
"P 	c #3F3F3F",
"Q 	c #363636",
"R 	c #FEFEFE",
"S 	c #C1C1C1",
"T 	c #868686",
"U 	c #404040",
"V 	c #686868",
"W 	c #272727",
"X 	c #CDCDCD",
"Y 	c #6E6E6E",
"Z 	c #171717",
"` 	c #B4B4B4",
" .	c #CACACA",
"..	c #343434",
"+.	c #515151",
"@.	c #B9B9B9",
"#.	c #DFDFDF",
"$.	c #B3B3B3",
"%.	c #242424",
"&.	c #202020",
"*.	c #1E1E1E",
"=.	c #323232",
"-.	c #A7A7A7",
";.	c #6F6F6F",
">.	c #1D1D1D",
". . . . . + @ . . # $ . . . $ . . . % & . . . . . . . . . . . . ",
". . . . . $ * . . @ $ . . . $ . . . = - . . . . . . . . . . . . ",
". ; $ $ $ $ $ $ $ $ $ $ $ $ $ $ $ $ $ $ $ $ $ > . . . . . . . . ",
", $ $ ' ) $ ! ~ ~ ! $ { ] ' $ ^ ] ' / / ' ' $ $ ( . . . . . . . ",
"_ $ : . . $ < . . [ $ . . . $ . . . } | . . 1 $ 2 . . . . . . . ",
"3 $ 4 . . 5 . . . . 6 . . . 7 . . . : # . . [ $ 8 . . . . . . . ",
"9 $ [ . . . . . . . . . . . . . . . . . . . 0 $ a . . . . . . . ",
"9 $ [ . . . . . . . . . . . . . . . . . . . b $ . . c $ * . . . ",
"9 $ [ . . . . . . . . . . . . . . . . . . . d . . $ $ $ $ e . . ",
"9 $ [ . . f + ~ ^ ^ ^ ^ ^ ^ ^ ^ ^ g h . . . . . i $ $ $ $ $ e . ",
"9 $ [ . . . j k l l l l l l l l l m n . . . . ) . o $ $ $ $ $ p ",
"9 $ [ . . . . . . . . . . . . . . . . . . . $ $ $ . o $ $ $ $ q ",
"9 $ [ . . . . . . . . . . . . . . . . . . $ . r $ $ . o $ $ $ . ",
"9 $ [ . . . s t t t t t t t t t t u v . $ w x $ $ $ $ . y $ . . ",
"9 $ [ . . z A B C C C C C C C C C { D $ w x $ $ $ $ $ $ . . . . ",
"9 $ [ . . . . . . . . . . . . . . . $ w x $ $ $ $ $ $ $ E . . . ",
"9 $ [ . . . . . . . . . . . . . . $ w x $ $ $ $ $ $ $ . . . . . ",
"9 $ [ . . . . . . . . . . . . . $ w F $ $ $ $ $ $ $ . . . . . . ",
"9 $ [ . . . G H I I I I I J K $ w F $ $ $ $ $ $ $ . . . . . . . ",
"9 $ [ . . L M N O O O O P Q $ R F $ $ $ $ $ $ $ . . . . . . . . ",
"9 $ [ . . . . . . . . . . $ R F $ $ $ $ $ $ $ . . . . . . . . . ",
"9 $ [ . . . . . . . . . $ S T $ $ $ $ $ $ $ . f a . . . . . . . ",
"9 $ [ . . . . . . . . U $ $ $ $ $ $ $ $ $ . . $ V . . . . . . . ",
"9 $ [ . . . . . . . . $ W $ $ $ $ $ $ $ . . X $ Y . . . . . . . ",
"9 $ [ . . . . . . . o M . ! $ $ $ $ $ . . . 0 $ Y . . . . . . . ",
"9 $ [ . . . . . . . U ( . . Z $ $ $ . . . . 0 $ Y . . . . . . . ",
"9 $ [ . . . . . . . $ U . . ` $ $ . . . . . 0 $ Y . . . . . . . ",
"9 $ [ . . . . . .  .$ $ / $ ..y . . . . . . 0 $ Y . . . . . . . ",
"3 $ 4 . . . . . . +.$ } @.. . . . . . . . . [ $ Y . . . . . . . ",
"_ $ #.. . . . . . . . . . . . . . . . . . . p $ 2 . . . . . . . ",
"$.$ / %.&.&.&.*.=.-.;.>.&.&.&.&.&.&.&.&.&.%./ $ 7 . . . . . . . ",
". > $ $ $ $ $ $ $ $ $ $ $ $ $ $ $ $ $ $ $ $ $ 9 . . . . . . . . "};
