/* XPM */
static const char *iconounafactura_xpm[] = {
"32 32 82 1",
" 	c None",
".	c #FFFFFF",
"+	c #F1F1F1",
"@	c #999999",
"#	c #A2A1A2",
"$	c #9B9B9B",
"%	c #DDDDDD",
"&	c #5D5D5D",
"*	c #000000",
"=	c #232323",
"-	c #656565",
";	c #2E2E2E",
">	c #616161",
",	c #959595",
"'	c #D6D6D6",
")	c #121212",
"!	c #313131",
"~	c #666666",
"{	c #E9E9E9",
"]	c #F2F2F2",
"^	c #414141",
"/	c #3F3F3F",
"(	c #CECECE",
"_	c #818181",
":	c #323232",
"<	c #CCCCCC",
"[	c #919191",
"}	c #5F5F5F",
"|	c #020202",
"1	c #939393",
"2	c #1B1B1B",
"3	c #030303",
"4	c #9D9D9D",
"5	c #A4A4A4",
"6	c #545454",
"7	c #AAAAAA",
"8	c #DBDBDB",
"9	c #E7E7E7",
"0	c #1A1A1A",
"a	c #9A9A9A",
"b	c #8D8D8D",
"c	c #8C8C8C",
"d	c #838383",
"e	c #C0C0C0",
"f	c #040404",
"g	c #5C5C5C",
"h	c #ACACAC",
"i	c #F3F3F3",
"j	c #262626",
"k	c #DEDEDE",
"l	c #E0E0E0",
"m	c #626262",
"n	c #050505",
"o	c #181818",
"p	c #303030",
"q	c #272727",
"r	c #3E3E3E",
"s	c #3B3B3B",
"t	c #393939",
"u	c #242424",
"v	c #484848",
"w	c #606060",
"x	c #5E5E5E",
"y	c #060606",
"z	c #171717",
"A	c #111111",
"B	c #646464",
"C	c #212121",
"D	c #707070",
"E	c #686868",
"F	c #808080",
"G	c #7C7C7C",
"H	c #7E7E7E",
"I	c #7D7D7D",
"J	c #6F6F6F",
"K	c #C5C5C5",
"L	c #969696",
"M	c #202020",
"N	c #4E4E4E",
"O	c #3D3D3D",
"P	c #FAFAFA",
"Q	c #FBFBFB",
"................................",
"................................",
"....+@##############$%..........",
"....&****************=..........",
"....-****************;..........",
"....-****************;..........",
"....-*******>,*******;..........",
"....-*******'.)******;..........",
"....-*****!....~*****;..........",
"....-*****{]^/(.*****;..........",
"....-*****._**:.*****;..........",
"....-*****<.[$}|*****;..........",
"....-******....$*****;..........",
"....-*****123*4.*****;..........",
"....-*****.5**6.*****:..........",
"....-*****7.8'.9*****0abbcd9....",
"....-******e..%f***********g....",
"....-*******hi*******jk<<l*m....",
"....-*******no*******p....*>....",
"....-****q^rstr/t****;....*>....",
"....-****........u***;....*>....",
"....-****vw&&&&x&****;....*>....",
"....-****y0zzzzoA****;....*>....",
"....B****........C***!....*w....",
"....D****EFGGGGHI****A....*J....",
"....K*****************e..L*K....",
".....M*****************N^*C.....",
"......O******************r......",
"........PQQQQQQQQQQQQQQP........",
"................................",
"................................",
"................................"};
