/* XPM */
static const char *iconobusqueda_xpm[] = {
"32 32 87 1",
" 	c None",
".	c #FFFFFF",
"+	c #E7E7E7",
"@	c #7E7E7E",
"#	c #434343",
"$	c #2A2A2A",
"%	c #353535",
"&	c #666666",
"*	c #BABABA",
"=	c #EAEAEA",
"-	c #222222",
";	c #000000",
">	c #0C0C0C",
",	c #A1A1A1",
"'	c #A2A2A2",
")	c #797979",
"!	c #F5F5F5",
"~	c #AAAAAA",
"{	c #080808",
"]	c #A5A5A5",
"^	c #181818",
"/	c #717171",
"(	c #272727",
"_	c #F1F1F1",
":	c #151515",
"<	c #848484",
"[	c #777777",
"}	c #2F2F2F",
"|	c #0A0A0A",
"1	c #C4C4C4",
"2	c #F4F4F4",
"3	c #6E6E6E",
"4	c #242424",
"5	c #DADADA",
"6	c #EBEBEB",
"7	c #757575",
"8	c #909090",
"9	c #DEDEDE",
"0	c #7F7F7F",
"a	c #111111",
"b	c #0F0F0F",
"c	c #575757",
"d	c #7A7A7A",
"e	c #FEFEFE",
"f	c #646464",
"g	c #424242",
"h	c #7C7C7C",
"i	c #4E4E4E",
"j	c #696969",
"k	c #7B7B7B",
"l	c #B7B7B7",
"m	c #E0E0E0",
"n	c #333333",
"o	c #D3D3D3",
"p	c #959595",
"q	c #FCFCFC",
"r	c #505050",
"s	c #010101",
"t	c #727272",
"u	c #D4D4D4",
"v	c #5A5A5A",
"w	c #DDDDDD",
"x	c #303030",
"y	c #4D4D4D",
"z	c #707070",
"A	c #393939",
"B	c #1F1F1F",
"C	c #676767",
"D	c #4B4B4B",
"E	c #878787",
"F	c #4F4F4F",
"G	c #6C6C6C",
"H	c #5D5D5D",
"I	c #202020",
"J	c #2E2E2E",
"K	c #656565",
"L	c #E6E6E6",
"M	c #1A1A1A",
"N	c #545454",
"O	c #EDEDED",
"P	c #E8E8E8",
"Q	c #E1E1E1",
"R	c #E5E5E5",
"S	c #E4E4E4",
"T	c #E2E2E2",
"U	c #E3E3E3",
"V	c #585858",
"................................",
"................................",
"........+@#$%&*.................",
"......=-;;;>;;;;,...............",
".....';;)!....~{;%..............",
"....];^........./;(.............",
"..._;:...........<;[............",
"...};..|1.........};............",
"..2;3.4;5.........6;7...........",
"..8;=9;0...........ab...........",
"..c;.d;e...........f;...........",
"..g;.c;............h;...........",
"..i;.j;............/;...........",
"..k;.l;m...........n;...........",
"..o;p.q............;r...........",
"...s;.............t;u...........",
"...*;v...........w;x............",
"....y;z.........5;;.............",
".....A;B5......C;;;D............",
"......E;;;FGHI;;J.K;yL6.........",
"........0M;;;;Nu...C;;;O........",
"...................+;;;;=.......",
"...................9;;;;;P......",
"....................Q;;;;;+.....",
".....................Q;;;;;R....",
"......................Q;;;;;S...",
".......................T;;;;;U..",
"........................Q;;;;%..",
".........................T;;;V..",
"..........................U%V...",
"................................",
"................................"};
