/* XPM */
static const char *icono_xpm[] = {
"32 32 123 2",
"  	c None",
". 	c #FFFFFF",
"+ 	c #DADADA",
"@ 	c #202020",
"# 	c #000000",
"$ 	c #565656",
"% 	c #FDFDFD",
"& 	c #3E3E3E",
"* 	c #0B0B0B",
"= 	c #8C8C8C",
"- 	c #7D7D7D",
"; 	c #7A7A7A",
"> 	c #919191",
", 	c #545454",
"' 	c #B7B7B7",
") 	c #B6B6B6",
"! 	c #555555",
"~ 	c #E4E4E4",
"{ 	c #1D1D1D",
"] 	c #262626",
"^ 	c #EAEAEA",
"/ 	c #E7E7E7",
"( 	c #222222",
"_ 	c #1E1E1E",
": 	c #E5E5E5",
"< 	c #2B2B2B",
"[ 	c #5C5C5C",
"} 	c #595959",
"| 	c #B0B0B0",
"1 	c #A4A4A4",
"2 	c #787878",
"3 	c #818181",
"4 	c #9A9A9A",
"5 	c #969696",
"6 	c #767676",
"7 	c #111111",
"8 	c #2E2E2E",
"9 	c #F3F3F3",
"0 	c #FAFAFA",
"a 	c #373737",
"b 	c #080808",
"c 	c #D1D1D1",
"d 	c #D6D6D6",
"e 	c #0A0A0A",
"f 	c #FCFCFC",
"g 	c #474747",
"h 	c #C3C3C3",
"i 	c #CCCCCC",
"j 	c #0E0E0E",
"k 	c #3F3F3F",
"l 	c #FEFEFE",
"m 	c #858585",
"n 	c #888888",
"o 	c #DEDEDE",
"p 	c #2D2D2D",
"q 	c #0F0F0F",
"r 	c #757575",
"s 	c #C0C0C0",
"t 	c #4A4A4A",
"u 	c #FBFBFB",
"v 	c #363636",
"w 	c #939393",
"x 	c #272727",
"y 	c #323232",
"z 	c #5B5B5B",
"A 	c #F0F0F0",
"B 	c #2A2A2A",
"C 	c #151515",
"D 	c #737373",
"E 	c #9B9B9B",
"F 	c #E9E9E9",
"G 	c #212121",
"H 	c #A9A9A9",
"I 	c #AEAEAE",
"J 	c #5D5D5D",
"K 	c #B5B5B5",
"L 	c #606060",
"M 	c #1B1B1B",
"N 	c #242424",
"O 	c #525252",
"P 	c #B9B9B9",
"Q 	c #050505",
"R 	c #CBCBCB",
"S 	c #8F8F8F",
"T 	c #7E7E7E",
"U 	c #D0D0D0",
"V 	c #070707",
"W 	c #040404",
"X 	c #404040",
"Y 	c #D2D2D2",
"Z 	c #707070",
"` 	c #CFCFCF",
" .	c #454545",
"..	c #ABABAB",
"+.	c #8B8B8B",
"@.	c #A5A5A5",
"#.	c #A6A6A6",
"$.	c #F8F8F8",
"%.	c #A3A3A3",
"&.	c #C1C1C1",
"*.	c #696969",
"=.	c #AFAFAF",
"-.	c #F2F2F2",
";.	c #131313",
">.	c #EDEDED",
",.	c #666666",
"'.	c #A7A7A7",
").	c #676767",
"!.	c #A2A2A2",
"~.	c #121212",
"{.	c #DBDBDB",
"].	c #B1B1B1",
"^.	c #6A6A6A",
"/.	c #BFBFBF",
"(.	c #4C4C4C",
"_.	c #9F9F9F",
":.	c #868686",
"<.	c #484848",
"[.	c #C2C2C2",
"}.	c #BDBDBD",
"|.	c #898989",
"1.	c #878787",
"2.	c #060606",
". . . . . . . . . . . . . . + @ # $ . . . . . . . . . . . . . . ",
". . . . . . . . . . . . % & # * = # # - . . . . . . . . . . . . ",
". . . . . . . . . . . ; # # > . . . , # # ' . . . . . . . . . . ",
". . . . . . . . . ) # # ! . . . . . . ~ { # ] ^ . . . . . . . . ",
". . . . . . . / ( # _ : . . . . . . . . . < # # [ . . . . . . . ",
". . . . . . } # # | . . . . . . . . . 1 # # 2 3 # # 4 . . . . . ",
". . . . 5 # # 6 . . . . . . . . . + 7 # 8 9 . . 0 a # b c . . . ",
". . d e # & f . . . . . . . . . g # # h . . . . . . i j # k l . ",
". . ( # ( . . . . . . . . . m # # n . . . . . . . . . o # # = . ",
". . p q # # r . . . . . s # # t . . . . . . . . . u v # { # w . ",
". . x y . z # # | . A B # C o . . . . . . . . . D # # E . # w . ",
". . x B . . F G # _ # # H . . . . . . . . . I # # J . . . # w . ",
". . x B . . . . K # # L . . . . . . . . ~ M # N ^ . . . . # w . ",
". . x B . . . . . . ; # # w . . . . . O # # P . . . . . . # w . ",
". . x B . . . . . . . % k # Q R . S # # T . . . . . . . . # w . ",
". . x B . . . . . . . . . U V # W # X . . . . Y $ . . . . # w . ",
". . x B . . . . . . . . . . . Z # ` . . . .  .# # . . . . # w . ",
". . x B . . . . . . . . . . . ..# . . . . # # +.. . . . . # w . ",
". . x B . . . . . . . . . . . @.# . . . . #.f . . . . . . # w . ",
". . x B . . . . . . . . . . . @.# . . . . . . . . . . . . # w . ",
". . x B . . . . . . . . . . . @.# . . . . . . . . . . . . # w . ",
". . x B . . . . . . . . . . . @.# . . . . . . . . . . . . # w . ",
". . x 8 . . . . . . . . . . . @.# . . . . . . . . . . . . # w . ",
". . _ W $.. . . . . . . . . . %.# l . . . . . . . . . . &.# +.. ",
". . ' # # *.. . . . . . . . . =.# . . . . . . . . . -.8 # ;.>.. ",
". . . . ,.# # '.. . . . . . . . . . . . . . . . . ).# # !.. . . ",
". . . . . -.< # ~.{.. . . . . . ].. . . . . . %.# # ^.. . . . . ",
". . . . . . . /.# # (.. . . . _.# . . . . {.~.# p -.. . . . . . ",
". . . . . . . . . :.# # :.. . @.# . . . <.# # [.. . . . . . . . ",
". . . . . . . . . . . t # # i }.# . |.# # 1.. . . . . . . . . . ",
". . . . . . . . . . . . {.~.# 7 # 2.# (.. . . . . . . . . . . . ",
". . . . . . . . . . . . . . ].b # p ~ . . . . . . . . . . . . . "};
