/* XPM */
static const char *iconovender_xpm[] = {
"32 32 144 2",
"  	c None",
". 	c #F6F6F6",
"+ 	c #F9F9F9",
"@ 	c #F3F3F3",
"# 	c #F4F4F4",
"$ 	c #F5F5F5",
"% 	c #F7F7F7",
"& 	c #FEFEFE",
"* 	c #BEBEBE",
"= 	c #000000",
"- 	c #C6C6C6",
"; 	c #FBFBFB",
"> 	c #F8F8F8",
", 	c #FAFAFA",
"' 	c #E9E9E9",
") 	c #373737",
"! 	c #040404",
"~ 	c #050505",
"{ 	c #3E3E3E",
"] 	c #FDFDFD",
"^ 	c #737373",
"/ 	c #868686",
"( 	c #FFFFFF",
"_ 	c #F2F2F2",
": 	c #F1F1F1",
"< 	c #383838",
"[ 	c #818181",
"} 	c #878787",
"| 	c #8D8D8D",
"1 	c #010101",
"2 	c #444444",
"3 	c #FCFCFC",
"4 	c #767676",
"5 	c #848484",
"6 	c #323232",
"7 	c #020202",
"8 	c #A3A3A3",
"9 	c #111111",
"0 	c #030303",
"a 	c #A1A1A1",
"b 	c #888888",
"c 	c #9F9F9F",
"d 	c #202020",
"e 	c #060606",
"f 	c #0B0B0B",
"g 	c #0C0C0C",
"h 	c #0A0A0A",
"i 	c #101010",
"j 	c #C8C8C8",
"k 	c #797979",
"l 	c #BFBFBF",
"m 	c #0E0E0E",
"n 	c #070707",
"o 	c #090909",
"p 	c #1A1A1A",
"q 	c #6B6B6B",
"r 	c #7F7F7F",
"s 	c #727272",
"t 	c #F0F0F0",
"u 	c #303030",
"v 	c #777777",
"w 	c #838383",
"x 	c #121212",
"y 	c #CBCBCB",
"z 	c #E4E4E4",
"A 	c #787878",
"B 	c #E2E2E2",
"C 	c #232323",
"D 	c #BDBDBD",
"E 	c #656565",
"F 	c #7D7D7D",
"G 	c #5B5B5B",
"H 	c #3B3B3B",
"I 	c #6F6F6F",
"J 	c #6E6E6E",
"K 	c #E0E0E0",
"L 	c #646464",
"M 	c #959595",
"N 	c #5A5A5A",
"O 	c #DFDFDF",
"P 	c #505050",
"Q 	c #939393",
"R 	c #CECECE",
"S 	c #DCDCDC",
"T 	c #E6E6E6",
"U 	c #ECECEC",
"V 	c #E3E3E3",
"W 	c #DADADA",
"X 	c #434343",
"Y 	c #999999",
"Z 	c #E8E8E8",
"` 	c #585858",
" .	c #9E9E9E",
"..	c #464646",
"+.	c #E7E7E7",
"@.	c #2E2E2E",
"#.	c #313131",
"$.	c #B7B7B7",
"%.	c #A0A0A0",
"&.	c #A7A7A7",
"*.	c #A8A8A8",
"=.	c #A6A6A6",
"-.	c #A9A9A9",
";.	c #A5A5A5",
">.	c #AAAAAA",
",.	c #7B7B7B",
"'.	c #262626",
").	c #696969",
"!.	c #5E5E5E",
"~.	c #5D5D5D",
"{.	c #595959",
"].	c #525252",
"^.	c #626262",
"/.	c #D3D3D3",
"(.	c #EEEEEE",
"_.	c #9A9A9A",
":.	c #454545",
"<.	c #ABABAB",
"[.	c #808080",
"}.	c #898989",
"|.	c #8B8B8B",
"1.	c #7E7E7E",
"2.	c #1C1C1C",
"3.	c #A4A4A4",
"4.	c #333333",
"5.	c #7C7C7C",
"6.	c #D7D7D7",
"7.	c #707070",
"8.	c #8E8E8E",
"9.	c #D6D6D6",
"0.	c #9B9B9B",
"a.	c #474747",
"b.	c #8F8F8F",
"c.	c #4F4F4F",
"d.	c #575757",
"e.	c #D9D9D9",
"f.	c #161616",
"g.	c #DBDBDB",
"h.	c #171717",
"i.	c #191919",
"j.	c #4C4C4C",
"k.	c #181818",
"l.	c #DEDEDE",
"m.	c #B8B8B8",
". + @ # + @ $ + % $ @ & * = - ; . > $ # % , @ $ + ; ' ) = ! ~ { ",
". $ > % , @ . . # . ] & ^ ! / ( # $ . $ $ _ , : % & = = ~ = = < ",
"> @ ; $ # . + . ; $ # & [ = } ( % $ % ] % % + ; ( | 1 2 & ( ( 3 ",
"( & 3 ( & ( & & ] ( ( ( 4 1 5 ; ( & & ] ( ( ; & ( 6 7 8 ( _ , % ",
"9 1 0 = 1 = = 0 = ! a ( 4 0 b ( c = ~ = ! = = = 0 = 7 ( + # # > ",
"d = = e f g h i g e j ( k = / ( l ~ m g n h o o = 0 p ( $ . % % ",
"q 7 a ( & 3 ( 3 ( & ; ( k = r ] ; ( ( ( ( ( ( ; / 7 s & + . + t ",
"* = u & . > : + # + . ( v = w ( . ] @ _ + # @ ( x = y & $ $ % > ",
"& 7 = ( + : + > ( z ; ( A = w ( ( B ( _ + % $ ] = 1 ( + . _ + . ",
"( C = D ; ] _ ( w ! E & k 7 F ( G 7 | 3 # @ ( c 0 H ( # . > $ $ ",
"( I 7 J ] @ > ] K = = L M = c N 1 = O ] # > , P = Q & # % + . @ ",
"( R = g 3 + # . & S = = h = n = = T ( _ + $ ( = ! U & % # : ; % ",
"> ( 1 ~ ; > % % . ( B = = 7 = ! V ( $ . # ( W = 7 ] @ + > # , @ ",
"# & X = Y & > . $ $ ] V ! = 1 Z ] + $ , # ( w = ` ( . $ # % . % ",
". (  .= ..( . % . + # ( +.@._ ( + _ @ . # ( #.= $.; $ # . > @ % ",
"+ , @ 1 1 ] ( ( ( & ( ( ; ( ] ( ] ( ( ( ( & = 1 ] > $ % > _ . > ",
"@ $ ( i = I 8 %.&.*.=.=.-.&.;.*.>.a 8 -.=.,.= '.] , . . % > $ @ ",
"@ , 3 - 0 1 1 = = 1 = = 7 = = = = 1 = n = ! 7 k ( > # % > $ $ % ",
"% ; # & U ).L E !.!.~.~.!.~.G ~.{.G G ].^.= = /.] % # % % $ $ > ",
"$ $ 3 # ; ( ] ] ( ( ( & ( & & & ( ( ( ( ( 7 = & . % . $ $ % . $ ",
"% (.% . % , ( ( ( ( ( ( ( ( ( ( ; ( ( ( _.= :.( # . % $ $ % % $ ",
"% > . + ] <.[.}./ / } } / } b } / |.[ 1.2.= 3.( > $ $ % % $ . + ",
"% % # % ( = ! = = = 1 1 = = 7 = 1 = 7 = 7 4.] , > . $ % % $ . > ",
"$ . > . & ;.F 1.F 5.r 1.,.F r 5.,.[ [.[ $.] , # # % % $ . > . @ ",
". # % > # ] ( ( ( ( ; ( & & ( ] ( ( ( ] ] > . % $ . % . . % . $ ",
"+ $ $ . % . @ ( 6.7.8.( $ > . ( 9.J |.( 3 $ > @ > $ # % % # $ > ",
"# % + $ % + & 3.! = = = ( , + *.1 ~ = = ( % . $ > $ $ % % $ $ > ",
"# $ $ > _ > ( = = 0.a.= ` & ( = = b.c.0 d.& ; # # % % . . % % # ",
"; t + # . ] e.= d ( V ! f.( g.= 2.( T = h.( # % # % % . . % % # ",
". % % : + # ( 1 = P i.= 1.& ( = 7 j.k.= 5.& _ > % $ $ . . $ $ % ",
"# > # ; $ . ; W ! = = X 3 . ; l.= 1 ~ < ] . > % % . $ . . $ . % ",
"@ . . @ $ % ; 3 ( l S ( , $ $ & ( m.g.( . _ > # # % > $ $ > % # "};
