/* XPM */
static const char *iconoStock_xpm[] = {
"32 32 123 2",
"  	c None",
". 	c #FFFFFF",
"+ 	c #F8F8F8",
"@ 	c #4A4A4A",
"# 	c #171717",
"$ 	c #1A1A1A",
"% 	c #191919",
"& 	c #303030",
"* 	c #232323",
"= 	c #272727",
"- 	c #2C2C2C",
"; 	c #2D2C2D",
"> 	c #313131",
", 	c #EAEAEA",
"' 	c #151515",
") 	c #494949",
"! 	c #E5E5E5",
"~ 	c #5F5F5F",
"{ 	c #5E5E5E",
"] 	c #E7E6E7",
"^ 	c #E6E6E6",
"/ 	c #5D5D5D",
"( 	c #93C62D",
"_ 	c #5B5B5B",
": 	c #77B700",
"< 	c #89C11A",
"[ 	c #76B500",
"} 	c #F9FCF5",
"| 	c #7AB800",
"1 	c #8AC11A",
"2 	c #3C3C3D",
"3 	c #040404",
"4 	c #0A0A0A",
"5 	c #090909",
"6 	c #000000",
"7 	c #A2CC49",
"8 	c #75B600",
"9 	c #89C018",
"0 	c #85BF13",
"a 	c #D9D9D9",
"b 	c #B2B2B2",
"c 	c #B6B6B6",
"d 	c #B5B5B5",
"e 	c #BFBFBF",
"f 	c #98C838",
"g 	c #80BB09",
"h 	c #DFEDBF",
"i 	c #51A400",
"j 	c #F2F7E7",
"k 	c #E3EFC8",
"l 	c #57A700",
"m 	c #D3EAA4",
"n 	c #D7D4DF",
"o 	c #A6A6A6",
"p 	c #AAAAAA",
"q 	c #A9A9A9",
"r 	c #52A400",
"s 	c #CDE49E",
"t 	c #EDF5DC",
"u 	c #59A700",
"v 	c #C8E195",
"w 	c #424242",
"x 	c #050505",
"y 	c #0C0C0C",
"z 	c #0B0B0B",
"A 	c #020202",
"B 	c #E2F0C7",
"C 	c #63AD00",
"D 	c #65AE00",
"E 	c #C5E08D",
"F 	c #FFFFFE",
"G 	c #D5E8AD",
"H 	c #C2DE88",
"I 	c #C9E296",
"J 	c #9DCC42",
"K 	c #64AD00",
"L 	c #ABD25E",
"M 	c #A2CE4B",
"N 	c #68AF00",
"O 	c #7A797E",
"P 	c #3F3F3F",
"Q 	c #464646",
"R 	c #444444",
"S 	c #76B600",
"T 	c #94C62D",
"U 	c #B0D568",
"V 	c #66AE00",
"W 	c #FBFDF8",
"X 	c #999899",
"Y 	c #656565",
"Z 	c #6B6B6B",
"` 	c #696969",
" .	c #6D6D6D",
"..	c #78B600",
"+.	c #F9FBF4",
"@.	c #FCFEFB",
"#.	c #F6FAED",
"$.	c #E0EEC3",
"%.	c #67AF00",
"&.	c #DFEEC0",
"*.	c #EFEFEF",
"=.	c #F1F1F1",
"-.	c #F0F0F0",
";.	c #FBFBFB",
">.	c #98C835",
",.	c #75B800",
"'.	c #97C834",
").	c #353535",
"!.	c #D0E5A4",
"~.	c #64AE00",
"{.	c #CFE5A3",
"].	c #ECECEC",
"^.	c #C9C9C9",
"/.	c #CDCDCD",
"(.	c #CCCCCC",
"_.	c #D8D8D8",
":.	c #F0F7E3",
"<.	c #F0F7E2",
"[.	c #E7E5E7",
"}.	c #E9E9E9",
"|.	c #262626",
"1.	c #4B4B4B",
"2.	c #F9F9F9",
". . . . . . . . . . . . . . . . . . . . . . . . . . . . . . . . ",
". . . . + @ # $ % % % % % % % % % % % % % % % % % # @ + . . . . ",
". . . . & * = - - - - - - - - - - - - - - - - - ; = * > . . . . ",
". . . , ' ) . . . . . . . . . . . . . . . . . . . . ) ' , . . . ",
". . . ! # ~ . . . . . . . . . . . . . . . . . . . . { # ] . . . ",
". . . ^ # / . . . . . . . ( . . . . . . . . . . . . _ # ] . . . ",
". . . ^ # / . . . . . . : < . . . . . . . . . . . . _ # ] . . . ",
". . . ^ # / . . [ } . | 1 . 2 3 4 4 4 4 4 4 5 6 . . _ # ] . . . ",
". . . ^ # / . . 7 8 9 0 . . a b c c c c c c d e . . _ # ] . . . ",
". . . ^ # / . . . f g . . . . . . . . . . . . . . . _ # ] . . . ",
". . . ^ # / . . . . . . . . . . . . . . . . . . . . _ # ] . . . ",
". . . ^ # / . . . . . . h i . . . . . . . . . . . . _ # ] . . . ",
". . . ^ # / . . j . . k l m n o p p p p p p q b . . _ # ] . . . ",
". . . ^ # / . . r s t u v . w x y y y y y y z A . . _ # ] . . . ",
". . . ^ # / . . B C D E . F . . . . . . . . . . . . _ # ] . . . ",
". . . ^ # / . . . G H . . . . . . . . . . . . . . . _ # ] . . . ",
". . . ^ # / . . . . . . . I . . . . . . . . . . . . _ # ] . . . ",
". . . ^ # / . . . . . . J K . . . . . . . . . . . . _ # ] . . . ",
". . . ^ # / . . L . . M N . O P Q Q Q Q Q Q R R . . _ # ] . . . ",
". . . ^ # / . . S T U V W . X Y Z Z Z Z Z Z `  .. . _ # ] . . . ",
". . . ^ # / . . . ..N +.. . . . . . . . . . . . . . _ # ] . . . ",
". . . ^ # / . . . @.#.. . . . . . . . . . . . . . . _ # ] . . . ",
". . . ^ # / . . . . . . . . . . . . . . . . . . . . _ # ] . . . ",
". . . ^ # / . . . $.%.%.&.. . *.=.=.=.=.=.=.-.;.. . _ # ] . . . ",
". . . ^ # / . . . >.,.,.'.. ).x z z z z z z 4 6 . . _ # ] . . . ",
". . . ^ # / . . . !.D ~.{.. ].^././././././.(._.. . _ # ] . . . ",
". . . ^ # / . . . . :.<.. . . . . . . . . . . . . . _ # ] . . . ",
". . . ! # ~ . . . . . . . . . . . . . . . . . . . . / # [.. . . ",
". . . }.' @ . . . . . . . . . . . . . . . . . . . . ) ' , . . . ",
". . . . > * |.- - - - - - - - - - - - - - - - - - |.* > . . . . ",
". . . . + 1.# $ $ $ $ $ $ $ $ $ $ $ $ $ $ $ $ $ $ # 1.2.. . . . ",
". . . . . . . . . . . . . . . . . . . . . . . . . . . . . . . . "};
